<?xml version="1.0" encoding="UTF-8"?>
<svg xmlns="http://www.w3.org/2000/svg" xmlns:xlink="http://www.w3.org/1999/xlink" viewBox="0 0 384 384" width="384px" height="384px">
<g id="surface3560105">
<path style=" stroke:none;fill-rule:nonzero;fill:rgb(100%,36.078432%,36.078432%);fill-opacity:1;" d="M 128 48 C 83.886719 48 48 83.886719 48 128 L 48 256 C 48 300.113281 83.886719 336 128 336 L 256 336 C 300.113281 336 336 300.113281 336 256 L 336 128 C 336 83.886719 300.113281 48 256 48 Z M 128 80 L 256 80 C 282.464844 80 304 101.535156 304 128 L 304 256 C 304 282.464844 282.464844 304 256 304 L 128 304 C 101.535156 304 80 282.464844 80 256 L 80 128 C 80 101.535156 101.535156 80 128 80 Z M 272 96 C 263.164062 96 256 103.164062 256 112 C 256 120.835938 263.164062 128 272 128 C 280.835938 128 288 120.835938 288 112 C 288 103.164062 280.835938 96 272 96 Z M 192 112 C 147.886719 112 112 147.886719 112 192 C 112 236.113281 147.886719 272 192 272 C 236.113281 272 272 236.113281 272 192 C 272 147.886719 236.113281 112 192 112 Z M 192 144 C 218.464844 144 240 165.535156 240 192 C 240 218.464844 218.464844 240 192 240 C 165.535156 240 144 218.464844 144 192 C 144 165.535156 165.535156 144 192 144 Z M 192 144 "/>
</g>
</svg>
